max v2;#N vpatcher 176 435 776 835;#P window setfont "Sans Serif" 9.;#P window linecount 1;#P newex 242 285 89 196617 print change_now;#P button 203 288 15 0;#P newex 40 286 32 196617 print;#P flonum 235 319 35 9 0 0 0 3 0 0 0 221 221 221 222 222 222 0 0 0;#P flonum 198 319 35 9 0 0 0 3 0 0 0 221 221 221 222 222 222 0 0 0;#P flonum 161 319 35 9 0 0 0 3 0 0 0 221 221 221 222 222 222 0 0 0;#P flonum 124 319 35 9 0 0 0 3 0 0 0 221 221 221 222 222 222 0 0 0;#P flonum 87 319 35 9 0 0 0 3 0 0 0 221 221 221 222 222 222 0 0 0;#P newex 87 286 100 196617 unpack 0. 0. 0. 0. 0.;#P newex 87 252 146 196617 route /melody /clock /change;#P newex 87 219 86 196617 udpreceive 8084;#P message 87 46 64 196617 /hello 8084;#P newex 87 130 120 196617 udpsend 127.0.0.1 8080;#P message 105 65 180 196617 /melody 8084 220 440 220 330 440;#P connect 4 0 11 0;#P connect 2 0 1 0;#P connect 0 0 1 0;#P connect 3 0 4 0;#P connect 4 0 5 0;#P connect 5 0 6 0;#P connect 5 1 7 0;#P connect 5 2 8 0;#P connect 5 3 9 0;#P connect 4 1 12 0;#P connect 5 4 10 0;#P connect 4 2 13 0;#P pop;