#N canvas 278 257 629 533 16;
#N canvas 104 325 925 571 osc 0;
#X obj 75 251 sendOSC;
#X obj 191 329 bng 15 250 50 0 empty empty empty 17 7 0 10 -262144
-1 -1;
#X msg 61 84 disconnect;
#X floatatom 105 456 5 0 0 0 - - -;
#X floatatom 141 477 5 0 0 0 - - -;
#X floatatom 172 506 5 0 0 0 - - -;
#X obj 158 425 unpack 0 0 0 0 0 0 0 0 0 0;
#X floatatom 458 662 5 0 0 0 - - -;
#X obj 166 355 OSCroute /melody /clock /change;
#X obj 270 390 bng 15 250 50 0 empty empty empty 17 7 0 10 -262144
-1 -1;
#X obj 372 393 print change_now;
#X floatatom 212 529 5 0 0 0 - - -;
#X floatatom 249 555 5 0 0 0 - - -;
#X floatatom 268 583 5 0 0 0 - - -;
#X floatatom 319 603 5 0 0 0 - - -;
#X floatatom 345 629 5 0 0 0 - - -;
#X floatatom 406 647 5 0 0 0 - - -;
#X msg 89 193 send /melody 200 400 500 600 800;
#X obj 71 365 print;
#X msg 77 116 connect 192.168.1.67 8080;
#X text 347 118 connect to the conductor;
#X text 273 150 register to receive message on port 8083 (see dumpOSC)
;
#X text 428 195 tell the conductor my melody;
#X text 323 230 change the tempo;
#X text 265 308 receive on 8083;
#X msg 147 227 send /clock 250;
#X obj 142 34 loadbang;
#X obj 202 72 delay 100;
#X obj 331 71 delay 200;
#X obj 73 566 outlet;
#X obj 499 556 outlet;
#X text 517 525 clock out;
#X text 62 538 melody out;
#X obj 31 28 inlet;
#X text 32 5 message inlet;
#X msg 84 150 send /hello 8084;
#X obj 125 302 dumpOSC 8084;
#X connect 2 0 0 0;
#X connect 4 0 29 0;
#X connect 6 0 3 0;
#X connect 6 1 4 0;
#X connect 6 2 5 0;
#X connect 6 3 11 0;
#X connect 6 4 12 0;
#X connect 6 5 13 0;
#X connect 6 6 14 0;
#X connect 6 7 15 0;
#X connect 6 8 16 0;
#X connect 6 9 7 0;
#X connect 8 0 6 0;
#X connect 8 1 9 0;
#X connect 8 1 30 0;
#X connect 8 2 10 0;
#X connect 17 0 0 0;
#X connect 19 0 0 0;
#X connect 25 0 0 0;
#X connect 26 0 2 0;
#X connect 26 0 27 0;
#X connect 26 0 28 0;
#X connect 27 0 19 0;
#X connect 28 0 35 0;
#X connect 33 0 0 0;
#X connect 35 0 0 0;
#X connect 36 0 1 0;
#X connect 36 0 8 0;
#X connect 36 0 18 0;
#X restore 74 32 pd osc;
#X obj 250 225 line~;
#X obj 128 266 *~;
#X obj 129 357 dac~;
#X floatatom 74 162 10 0 0 0 - - -;
#X obj 72 124 float;
#X obj 70 -109 random 1000;
#X floatatom 71 -81 5 0 0 0 - - -;
#X obj 69 -52 pack 0;
#X msg 74 -17 send /melody \$1;
#X obj 70 -140 metro 500;
#X obj 85 -172 tgl 15 0 empty empty empty 17 7 0 10 -262144 -1 -1 1
1;
#X obj 154 49 t b;
#X obj 323 156 del 100;
#X obj 286 89 del 10;
#X obj 68 213 phasor~;
#X msg 180 100 1 \, 0 10;
#X msg 227 155 0 \, 1 20;
#X msg 267 1 send /clock 200;
#X msg 322 194 1 \, 0 10;
#X connect 0 0 5 1;
#X connect 0 1 12 0;
#X connect 1 0 2 1;
#X connect 2 0 3 0;
#X connect 2 0 3 1;
#X connect 4 0 15 0;
#X connect 5 0 4 0;
#X connect 6 0 7 0;
#X connect 7 0 8 0;
#X connect 8 0 9 0;
#X connect 9 0 0 0;
#X connect 10 0 6 0;
#X connect 11 0 10 0;
#X connect 12 0 5 0;
#X connect 12 0 17 0;
#X connect 12 0 13 0;
#X connect 12 0 16 0;
#X connect 12 0 14 0;
#X connect 13 0 19 0;
#X connect 14 0 17 0;
#X connect 15 0 2 0;
#X connect 16 0 1 0;
#X connect 17 0 1 0;
#X connect 18 0 0 0;
#X connect 19 0 1 0;
